# This file uses centimeters as units for non-parametric coordinates.

mtllib flat_rock.mtl
g default
v 0.270113 0.000000 -0.270113
v -0.270113 0.000000 -0.270113
v 0.270113 0.000000 0.270113
v -0.270113 0.000000 0.270113
v 0.136139 0.267895 -0.136139
v -0.136139 0.267895 -0.136139
v 0.136139 0.267895 0.136139
v -0.136139 0.267895 0.136139
vt 0.685665 0.220924
vt 0.314468 0.220792
vt 0.108625 0.312775
vt 0.593337 0.984985
vt 0.685532 0.592122
vt 0.314335 0.591989
vt 0.406318 0.797832
vt 0.891375 0.500139
vt 0.593682 0.015082
vt 0.891441 0.313053
vt 0.593404 0.797899
vt 0.108559 0.499861
vt 0.406597 0.015015
vt 0.406251 0.984918
vn 0.000000 0.447285 -0.894392
vn 0.000000 0.447285 -0.894392
vn 0.000000 0.447285 -0.894392
vn 0.000000 0.447285 -0.894392
vn 0.000000 -1.000000 0.000000
vn 0.000000 -1.000000 0.000000
vn 0.000000 -1.000000 0.000000
vn 0.000000 -1.000000 0.000000
vn -0.894392 0.447285 0.000000
vn -0.894392 0.447285 0.000000
vn -0.894392 0.447285 0.000000
vn -0.894392 0.447285 0.000000
vn 0.894392 0.447285 0.000000
vn 0.894392 0.447285 0.000000
vn 0.894392 0.447285 0.000000
vn 0.894392 0.447285 0.000000
vn 0.000000 0.447285 0.894392
vn 0.000000 0.447285 0.894392
vn 0.000000 0.447285 0.894392
vn 0.000000 0.447285 0.894392
vn 0.000000 1.000000 0.000000
vn 0.000000 1.000000 0.000000
vn 0.000000 1.000000 0.000000
vn 0.000000 1.000000 0.000000
s off
g rock_envelope_00 flat_rock
usemtl lambert36SG
f 1/1/1 2/2/2 6/13/3 5/9/4
f 3/5/5 4/6/6 2/2/7 1/1/8
f 2/2/9 4/6/10 8/12/11 6/3/12
f 3/5/13 1/1/14 5/10/15 7/8/16
f 7/11/17 8/7/18 4/6/19 3/5/20
f 5/4/21 6/14/22 8/7/23 7/11/24
g default
v -0.002650 0.004586 -0.262339
v -0.262339 0.004586 -0.262339
v -0.132495 0.264275 -0.132495
v -0.002650 0.004586 -0.002650
v -0.262339 0.004586 -0.002650
vt 0.651110 0.651059
vt 0.651059 0.348890
vt 0.500197 0.013335
vt 0.348890 0.348941
vt 0.348941 0.651110
vt 0.986665 0.500197
vt 0.499803 0.986665
vt 0.013335 0.499803
vn 0.000000 0.447214 -0.894427
vn 0.000000 0.447214 -0.894427
vn 0.000000 0.447214 -0.894427
vn 0.000000 0.447214 0.894427
vn 0.000000 0.447214 0.894427
vn 0.000000 0.447214 0.894427
vn 0.000000 -1.000000 0.000000
vn 0.000000 -1.000000 0.000000
vn 0.000000 -1.000000 0.000000
vn 0.000000 -1.000000 0.000000
vn -0.894427 0.447213 0.000000
vn -0.894427 0.447213 0.000000
vn -0.894427 0.447213 0.000000
vn 0.894427 0.447214 0.000000
vn 0.894427 0.447214 0.000000
vn 0.894427 0.447214 0.000000
s off
g flat_rock rock_edge_00
usemtl lambert33SG
f 9/15/25 10/16/26 11/20/27
f 11/22/28 13/18/29 12/19/30
f 12/19/31 13/18/32 10/16/33 9/15/34
f 10/16/35 13/18/36 11/17/37
f 12/19/38 9/15/39 11/21/40
g default
v -0.262339 0.004586 0.000000
v -0.262339 0.004586 0.259689
v -0.132495 0.264275 0.129845
v -0.002650 0.004586 -0.000000
v -0.002650 0.004586 0.259689
vt 0.348941 0.651110
vt 0.651110 0.651059
vt 0.986665 0.500197
vt 0.651059 0.348890
vt 0.348890 0.348941
vt 0.499803 0.986665
vt 0.013335 0.499803
vt 0.500197 0.013335
vn -0.894427 0.447213 0.000000
vn -0.894427 0.447213 0.000000
vn -0.894427 0.447213 0.000000
vn 0.894427 0.447214 0.000000
vn 0.894427 0.447214 0.000000
vn 0.894427 0.447214 0.000000
vn 0.000000 -1.000000 0.000000
vn 0.000000 -1.000000 0.000000
vn 0.000000 -1.000000 0.000000
vn 0.000000 -1.000000 0.000000
vn -0.000000 0.447214 0.894427
vn -0.000000 0.447214 0.894427
vn -0.000000 0.447214 0.894427
vn -0.000000 0.447214 -0.894427
vn -0.000000 0.447214 -0.894427
vn -0.000000 0.447214 -0.894427
s off
g flat_rock rock_edge_01
usemtl lambert33SG
f 14/23/41 15/24/42 16/28/43
f 16/30/44 18/26/45 17/27/46
f 17/27/47 18/26/48 15/24/49 14/23/50
f 15/24/51 18/26/52 16/25/53
f 17/27/54 14/23/55 16/29/56
g default
v 0.262339 0.004586 -0.002650
v 0.262339 0.004586 -0.262339
v 0.132495 0.264275 -0.132495
v 0.002650 0.004586 -0.002650
v 0.002650 0.004586 -0.262339
vt 0.651059 0.348890
vt 0.348890 0.348941
vt 0.013335 0.499803
vt 0.348941 0.651110
vt 0.651110 0.651059
vt 0.500197 0.013335
vt 0.986665 0.500197
vt 0.499803 0.986665
vn 0.894427 0.447213 0.000000
vn 0.894427 0.447213 0.000000
vn 0.894427 0.447213 0.000000
vn -0.894427 0.447214 0.000000
vn -0.894427 0.447214 0.000000
vn -0.894427 0.447214 0.000000
vn 0.000000 -1.000000 0.000000
vn 0.000000 -1.000000 0.000000
vn 0.000000 -1.000000 0.000000
vn 0.000000 -1.000000 0.000000
vn 0.000000 0.447214 -0.894427
vn 0.000000 0.447214 -0.894427
vn 0.000000 0.447214 -0.894427
vn 0.000000 0.447214 0.894427
vn 0.000000 0.447214 0.894427
vn 0.000000 0.447214 0.894427
s off
g flat_rock rock_edge_02
usemtl lambert33SG
f 19/31/57 20/32/58 21/36/59
f 21/38/60 23/34/61 22/35/62
f 22/35/63 23/34/64 20/32/65 19/31/66
f 20/32/67 23/34/68 21/33/69
f 22/35/70 19/31/71 21/37/72
g default
v 0.002650 0.004586 0.262339
v 0.262339 0.004586 0.262339
v 0.132495 0.264275 0.132495
v 0.002650 0.004586 0.002650
v 0.262339 0.004586 0.002650
vt 0.348941 0.651110
vt 0.651110 0.651059
vt 0.986665 0.500197
vt 0.651059 0.348890
vt 0.348890 0.348941
vt 0.499803 0.986665
vt 0.013335 0.499803
vt 0.500197 0.013335
vn 0.000000 0.447214 0.894427
vn 0.000000 0.447214 0.894427
vn 0.000000 0.447214 0.894427
vn 0.000000 0.447214 -0.894427
vn 0.000000 0.447214 -0.894427
vn 0.000000 0.447214 -0.894427
vn 0.000000 -1.000000 0.000000
vn 0.000000 -1.000000 0.000000
vn 0.000000 -1.000000 0.000000
vn 0.000000 -1.000000 0.000000
vn 0.894427 0.447213 0.000000
vn 0.894427 0.447213 0.000000
vn 0.894427 0.447213 0.000000
vn -0.894427 0.447214 0.000000
vn -0.894427 0.447214 0.000000
vn -0.894427 0.447214 0.000000
s off
g flat_rock rock_edge_03
usemtl lambert33SG
f 24/39/73 25/40/74 26/44/75
f 26/46/76 28/42/77 27/43/78
f 27/43/79 28/42/80 25/40/81 24/39/82
f 25/40/83 28/42/84 26/41/85
f 27/43/86 24/39/87 26/45/88
g default
v -0.262339 0.004586 0.000000
v -0.002650 0.004586 0.000000
v -0.132463 0.264275 -0.129845
v -0.132495 0.264275 0.129845
vt 0.500086 0.984272
vt 0.715189 0.500000
vt 0.500141 0.018973
vt 0.284953 0.499961
vt 0.930236 0.981027
vt 0.069764 0.980948
vn 0.000000 -0.447214 -0.894427
vn 0.000000 -0.447214 -0.894427
vn 0.000000 -0.447214 -0.894427
vn 0.000000 -0.447214 0.894427
vn 0.000000 -0.447214 0.894427
vn 0.000000 -0.447214 0.894427
vn 0.894449 0.447169 0.000110
vn 0.894449 0.447169 0.000110
vn 0.894449 0.447170 0.000110
vn -0.894405 0.447258 -0.000110
vn -0.894405 0.447258 -0.000110
vn -0.894405 0.447258 -0.000110
s off
g flat_rock rock_bridge_00
usemtl lambert34SG
f 29/47/89 31/48/90 30/51/91
f 29/47/92 30/52/93 32/50/94
f 30/49/95 31/48/96 32/50/97
f 29/47/98 32/50/99 31/48/100
g default
v 0.000000 0.004586 0.262339
v 0.000000 0.004586 0.002650
v -0.129845 0.264275 0.132463
v 0.129845 0.264275 0.132495
vt 0.500086 0.984272
vt 0.715189 0.500000
vt 0.500141 0.018973
vt 0.284953 0.499961
vt 0.930236 0.981027
vt 0.069764 0.980948
vn -0.894427 -0.447214 0.000000
vn -0.894427 -0.447214 0.000000
vn -0.894427 -0.447214 0.000000
vn 0.894427 -0.447214 0.000000
vn 0.894427 -0.447214 0.000000
vn 0.894427 -0.447214 0.000000
vn 0.000110 0.447170 -0.894449
vn 0.000110 0.447170 -0.894449
vn 0.000110 0.447169 -0.894449
vn -0.000110 0.447258 0.894405
vn -0.000110 0.447258 0.894405
vn -0.000110 0.447258 0.894405
s off
g flat_rock rock_bridge_01
usemtl lambert34SG
f 33/53/101 35/54/102 34/57/103
f 33/53/104 34/58/105 36/56/106
f 34/55/107 35/54/108 36/56/109
f 33/53/110 36/56/111 35/54/112
g default
v 0.000000 0.004586 -0.002650
v 0.000000 0.004586 -0.262339
v -0.129845 0.264275 -0.132526
v 0.129845 0.264275 -0.132495
vt 0.500086 0.984272
vt 0.715189 0.500000
vt 0.500141 0.018973
vt 0.284953 0.499961
vt 0.930236 0.981027
vt 0.069764 0.980948
vn -0.894427 -0.447214 0.000000
vn -0.894427 -0.447214 0.000000
vn -0.894427 -0.447214 0.000000
vn 0.894427 -0.447214 0.000000
vn 0.894427 -0.447214 0.000000
vn 0.894427 -0.447214 0.000000
vn 0.000110 0.447170 -0.894449
vn 0.000110 0.447170 -0.894449
vn 0.000110 0.447169 -0.894449
vn -0.000110 0.447258 0.894405
vn -0.000110 0.447258 0.894405
vn -0.000110 0.447258 0.894405
s off
g flat_rock rock_bridge_02
usemtl lambert34SG
f 37/59/113 39/60/114 38/63/115
f 37/59/116 38/64/117 40/62/118
f 38/61/119 39/60/120 40/62/121
f 37/59/122 40/62/123 39/60/124
g default
v 0.002650 0.004586 0.000000
v 0.262339 0.004586 0.000000
v 0.132527 0.264275 -0.129845
v 0.132495 0.264275 0.129845
vt 0.500086 0.984272
vt 0.715189 0.500000
vt 0.500141 0.018973
vt 0.284953 0.499961
vt 0.930236 0.981027
vt 0.069764 0.980948
vn 0.000000 -0.447214 -0.894427
vn 0.000000 -0.447214 -0.894427
vn 0.000000 -0.447214 -0.894427
vn 0.000000 -0.447214 0.894427
vn 0.000000 -0.447214 0.894427
vn 0.000000 -0.447214 0.894427
vn 0.894449 0.447169 0.000110
vn 0.894449 0.447169 0.000110
vn 0.894449 0.447169 0.000110
vn -0.894405 0.447258 -0.000110
vn -0.894405 0.447258 -0.000110
vn -0.894405 0.447258 -0.000110
s off
g flat_rock rock_bridge_03
usemtl lambert34SG
f 41/65/125 43/66/126 42/69/127
f 41/65/128 42/70/129 44/68/130
f 42/67/131 43/66/132 44/68/133
f 41/65/134 44/68/135 43/66/136
g default
v 0.129845 0.264275 0.129845
v -0.129845 0.264275 0.129845
v -0.000000 0.004586 0.000000
v 0.129845 0.264275 -0.129845
v -0.129845 0.264275 -0.129845
vt 0.651059 0.348890
vt 0.348890 0.348941
vt 0.013335 0.499803
vt 0.348941 0.651110
vt 0.651110 0.651059
vt 0.500197 0.013335
vt 0.986665 0.500197
vt 0.499803 0.986665
vn 0.000000 -0.447214 0.894427
vn 0.000000 -0.447214 0.894427
vn 0.000000 -0.447214 0.894427
vn 0.000000 -0.447214 -0.894427
vn 0.000000 -0.447214 -0.894427
vn 0.000000 -0.447214 -0.894427
vn 0.000000 1.000000 0.000000
vn 0.000000 1.000000 0.000000
vn 0.000000 1.000000 0.000000
vn 0.000000 1.000000 0.000000
vn -0.894427 -0.447214 0.000000
vn -0.894427 -0.447214 0.000000
vn -0.894427 -0.447214 0.000000
vn 0.894427 -0.447214 0.000000
vn 0.894427 -0.447214 0.000000
vn 0.894427 -0.447214 0.000000
s off
g flat_rock rock_center_00
usemtl lambert35SG
f 45/71/137 46/72/138 47/76/139
f 47/78/140 49/74/141 48/75/142
f 48/75/143 49/74/144 46/72/145 45/71/146
f 46/72/147 49/74/148 47/73/149
f 48/75/150 45/71/151 47/77/152
